<?xml version="1.0" encoding="UTF-8"?>
<!DOCTYPE svg PUBLIC "-//W3C//DTD SVG 1.1//EN" "http://www.w3.org/Graphics/SVG/1.1/DTD/svg11.dtd">
<!-- Creator: CorelDRAW Standard 2024 -->
<svg xmlns="http://www.w3.org/2000/svg" xml:space="preserve" width="433px" height="433px" version="1.1" style="shape-rendering:geometricPrecision; text-rendering:geometricPrecision; image-rendering:optimizeQuality; fill-rule:evenodd; clip-rule:evenodd"
viewBox="0 0 158.292 158.292"
 xmlns:xlink="http://www.w3.org/1999/xlink"
 xmlns:xodm="http://www.corel.com/coreldraw/odm/2003">
 <defs>
  <style type="text/css">
   <![CDATA[
    .fil0 {fill:none}
    .fil1 {fill:#F57215}
   ]]>
  </style>
 </defs>
 <g id="Layer_x0020_1">
  <metadata id="CorelCorpID_0Corel-Layer"/>
  <rect class="fil0" width="158.292" height="158.292"/>
  <g id="_2114385306912">
   <path class="fil1" d="M31.903 95.116c-9.538,0.008 0.319,-6.77 2.024,-8.2 4.801,-4.023 5.856,-3.993 14.43,-3.423l1.899 11.647 -18.353 -0.024zm30.89 -11.739c4.487,0.068 14.425,8.397 17.563,11.699l-25.534 0.021c-1.092,-3.11 -2.161,-8.061 -1.847,-11.321 2.546,-0.759 6.999,-0.442 9.818,-0.399zm-42.562 37.055c-0.021,-7.347 2.819,-13.229 10.533,-12.87 8.411,0.392 9.385,7.543 9.505,13.381l47.272 -0.28c0.067,-3.665 0.158,-6.862 2.024,-9.495 3.363,-4.748 12.359,-4.946 15.849,0.31 2.375,3.575 1.722,5.212 1.836,9.417 9.379,0.291 11.846,-5.46 10.196,-12.932 -2.93,-13.264 -23.495,-10.134 -30.317,-15.37 -4.458,-3.421 -8.457,-6.275 -13.33,-9.508 -6.271,-4.16 -7.572,-5.597 -17.309,-5.553 -24.63,0.112 -20.353,-1.161 -35.418,10.304 -10.078,7.671 -6.706,5.362 -14.857,7.868 -0.549,2.859 -0.004,6.579 -0.25,9.83l-0.573 2.61c-0.672,2.156 -1.171,4.149 -0.258,6.949 1.298,3.984 10.744,4.989 15.097,5.339z"/>
   <path class="fil1" d="M152.915 117.416c1.245,-4.897 -5.897,-20.134 -7.597,-25.392 -3.59,-11.107 2.825,-4.719 6.962,-7.956 1.268,-0.992 1.861,-4.693 0.898,-6.745 -0.895,-1.91 -4.107,-1.335 -6.772,-1.229 -0.489,-7.952 -7.812,-7.447 -13.768,-5.802 -11.526,3.183 -10.256,3.353 -18.286,1.708 -0.611,3.56 -1.005,10.103 0.274,13.049 2.883,1.464 8.403,0.271 11.998,0.457 -2.191,5.796 -7.332,11.566 -6.25,13.251 3.102,3.245 5.581,-1.32 6.821,-3.669 2.002,-3.794 2.608,-6.399 5.077,-7.75 2.124,7.023 6.137,16.572 8.148,24.627l-3.901 2.68c-0.012,4.782 2.885,3.988 6.848,3.945 3.851,-0.042 6.519,0.442 9.548,-1.174z"/>
   <path class="fil1" d="M121.08 70.796c1.421,-1.903 0.398,-1.731 2.406,-2.993 2.107,-1.325 8.198,-2.773 10.356,-4.99 2.247,-2.309 4.603,-10.331 6.147,-14.352 3.189,-8.31 2.185,-6.155 -6.962,-9.154 -4.316,-1.415 -11.4,-4.341 -15.3,-4.936 -1.478,1.791 -7.356,17.403 -7.258,20.218 0.098,2.784 2.892,7.695 4.224,9.94 2.258,3.808 -0.619,6.63 6.387,6.267z"/>
   <path class="fil1" d="M115.821 30.613c2.051,1.675 18.044,6.616 23.106,8.394 2.91,1.022 6.146,3.101 7.137,-0.015 1.427,-4.481 -5.029,-4.821 -13.108,-7.605 -2.968,-1.022 -13.322,-4.931 -15.52,-4.945 -1.113,1.267 -1.428,2.187 -1.615,4.171z"/>
   <path class="fil1" d="M105.975 84.398l5.886 -0.328 -0.212 -8.059c-2.103,-0.711 -3.585,-0.775 -5.701,0.027l0.027 8.36z"/>
  </g>
 </g>
</svg>
