<?xml version="1.0" encoding="UTF-8"?>
<!DOCTYPE svg PUBLIC "-//W3C//DTD SVG 1.1//EN" "http://www.w3.org/Graphics/SVG/1.1/DTD/svg11.dtd">
<!-- Creator: CorelDRAW Standard 2024 -->
<svg xmlns="http://www.w3.org/2000/svg" xml:space="preserve" width="677px" height="677px" version="1.1" style="shape-rendering:geometricPrecision; text-rendering:geometricPrecision; image-rendering:optimizeQuality; fill-rule:evenodd; clip-rule:evenodd"
viewBox="0 0 756.43 756.43"
 xmlns:xlink="http://www.w3.org/1999/xlink"
 xmlns:xodm="http://www.corel.com/coreldraw/odm/2003">
 <defs>
  <style type="text/css">
   <![CDATA[
    .fil0 {fill:none}
    .fil1 {fill:#F57215}
    .fil2 {fill:#F57215;fill-rule:nonzero}
   ]]>
  </style>
 </defs>
 <g id="Layer_x0020_1">
  <metadata id="CorelCorpID_0Corel-Layer"/>
  <rect class="fil0" width="756.43" height="756.43"/>
  <path class="fil1" d="M0 455.624c35.936,7.354 102.709,63.611 124.733,86.786l-124.733 0.103 0 192.501 178.521 -1.058c0.501,-27.436 1.183,-51.369 15.151,-71.08 25.176,-35.544 92.522,-37.027 118.648,2.32 17.78,26.763 12.891,39.018 13.744,70.498 70.212,2.178 88.681,-40.875 76.329,-96.811 -21.934,-99.295 -175.886,-75.864 -226.957,-115.061 -33.373,-25.61 -63.309,-46.975 -99.79,-71.178 -31.897,-21.159 -46.623,-32.906 -75.646,-38.161l0 41.141z"/>
  <path class="fil1" d="M732.538 701.406c1.394,-43.103 -86.094,-157.01 -109.912,-197.719 -50.303,-85.996 14.889,-44.519 43.435,-79.091 8.75,-10.596 6.903,-42.534 -4.89,-57.871 -10.965,-14.279 -36.684,-3.592 -58.704,2.18 -18.665,-65.387 -78.781,-47.742 -125.409,-23.102 -90.236,47.679 -79.338,46.765 -149.291,47.787 1.439,30.796 10.159,86.058 26.225,108.268 26.717,6.914 70.541,-13.158 100.849,-18.203 -7.629,52.334 -39.897,109.861 -27.786,121.923 31.811,21.357 44.099,-21.244 50.125,-43.098 9.727,-35.299 9.999,-58.125 28.1,-73.916 30.591,54.643 81.561,126.878 113.102,190.331l-27.6 29.497c8.674,39.883 31.365,27.949 64.32,20.319 32.024,-7.415 55.152,-8.276 77.434,-27.304l0.002 -0.001z"/>
  <path class="fil1" d="M381.64 371.209c8.355,-18.47 0.143,-15.159 14.565,-29.363 15.133,-14.911 63.247,-38.156 77.168,-60.594 14.494,-23.37 19.414,-94.56 24.907,-130.91 11.336,-75.12 6.921,-55.315 -74.827,-63.532 -38.573,-3.875 -102.99,-15.268 -136.59,-13.074 -9.034,17.641 -29.387,158.56 -23.405,181.846 5.923,23.026 38.224,58.836 53.445,75.105 25.808,27.6 7.004,56.401 64.737,40.522z"/>
  <path class="fil1" d="M264.08 45.909c20.169,10.2 162.546,22.043 208.003,27.577 26.131,3.179 56.92,14.572 59.463,-13.22 3.673,-39.97 -50.766,-30.959 -123.216,-39.344 -26.616,-3.074 -120.094,-16.66 -138.441,-12.745 -6.953,12.604 -7.891,20.85 -5.81,37.731l0.001 0.001z"/>
  <path class="fil2" d="M330.146 501.29c-5.061,2.806 -6.741,6.81 -9.441,7.692 -2.701,0.883 -5.741,0.727 -6.762,-2.394 -1.02,-3.12 1.341,-5.043 4.041,-5.926 2.701,-0.883 6.421,1.355 12.162,0.628z"/>
  <path class="fil2" d="M304.823 508.781c-4.451,3.698 -5.357,7.944 -7.846,9.314 -2.489,1.37 -5.506,1.782 -7.088,-1.094 -1.584,-2.876 0.378,-5.205 2.867,-6.575 2.489,-1.37 6.561,0.136 12.067,-1.645z"/>
  <path class="fil2" d="M286.68 507.613c-5.061,2.806 -6.742,6.809 -9.442,7.692 -2.701,0.883 -5.741,0.726 -6.761,-2.394 -1.02,-3.12 1.34,-5.043 4.041,-5.926 2.7,-0.883 6.421,1.354 12.162,0.628z"/>
  <path class="fil2" d="M312.76 495.494c-5.061,2.807 -6.742,6.81 -9.442,7.693 -2.701,0.882 -5.741,0.726 -6.761,-2.395 -1.02,-3.12 1.34,-5.043 4.04,-5.925 2.701,-0.884 6.422,1.354 12.163,0.627z"/>
  <path class="fil2" d="M332.254 482.059c-5.061,2.807 -6.741,6.81 -9.442,7.693 -2.7,0.882 -5.741,0.726 -6.761,-2.395 -1.02,-3.12 1.34,-5.043 4.041,-5.925 2.7,-0.884 6.421,1.354 12.162,0.627z"/>
  <path class="fil2" d="M309.072 474.684c-5.061,2.806 -6.741,6.809 -9.442,7.692 -2.7,0.882 -5.741,0.726 -6.761,-2.394 -1.02,-3.121 1.34,-5.044 4.041,-5.926 2.7,-0.884 6.421,1.354 12.162,0.628z"/>
  <path class="fil2" d="M326.458 457.824c-5.061,2.806 -6.741,6.809 -9.442,7.692 -2.7,0.883 -5.741,0.726 -6.761,-2.394 -1.02,-3.121 1.341,-5.043 4.041,-5.926 2.7,-0.884 6.421,1.354 12.162,0.628z"/>
  <path class="fil2" d="M285.626 488.909c-5.061,2.806 -6.741,6.809 -9.442,7.692 -2.7,0.883 -5.741,0.726 -6.761,-2.394 -1.02,-3.12 1.34,-5.043 4.041,-5.926 2.7,-0.883 6.421,1.354 12.162,0.628z"/>
  <path class="fil2" d="M303.802 453.609c-5.061,2.806 -6.741,6.809 -9.441,7.692 -2.701,0.882 -5.741,0.726 -6.761,-2.394 -1.021,-3.121 1.34,-5.044 4.04,-5.926 2.701,-0.884 6.421,1.354 12.162,0.628z"/>
  <path class="fil2" d="M319.872 437.012c-5.061,2.806 -6.741,6.809 -9.442,7.692 -2.7,0.883 -5.741,0.727 -6.761,-2.394 -1.02,-3.12 1.34,-5.043 4.041,-5.926 2.7,-0.883 6.421,1.354 12.162,0.628z"/>
  <path class="fil2" d="M250.853 499.9c-5.061,2.807 -6.741,6.81 -9.442,7.693 -2.7,0.882 -5.741,0.726 -6.761,-2.395 -1.02,-3.12 1.341,-5.043 4.041,-5.925 2.701,-0.884 6.421,1.354 12.162,0.627z"/>
  <path class="fil2" d="M258.756 515.252c-5.061,2.806 -6.741,6.81 -9.442,7.692 -2.7,0.883 -5.741,0.727 -6.761,-2.394 -1.02,-3.12 1.34,-5.043 4.041,-5.926 2.7,-0.883 6.421,1.355 12.162,0.628z"/>
  <path class="fil2" d="M279.303 531.585c-5.061,2.806 -6.741,6.81 -9.442,7.692 -2.7,0.883 -5.741,0.727 -6.761,-2.394 -1.02,-3.12 1.341,-5.043 4.041,-5.926 2.701,-0.883 6.421,1.355 12.162,0.628z"/>
  <path class="fil2" d="M277.533 409.34c-5.061,2.807 -6.741,6.81 -9.442,7.693 -2.7,0.882 -5.741,0.726 -6.761,-2.395 -1.02,-3.12 1.341,-5.043 4.041,-5.925 2.701,-0.884 6.421,1.354 12.162,0.627z"/>
  <path class="fil2" d="M222.138 512.091c-5.061,2.806 -6.741,6.809 -9.442,7.692 -2.7,0.883 -5.741,0.726 -6.761,-2.394 -1.02,-3.121 1.341,-5.043 4.041,-5.926 2.701,-0.883 6.421,1.354 12.162,0.628z"/>
  <path class="fil2" d="M251.282 529.397c-5.061,2.806 -6.742,6.809 -9.442,7.692 -2.701,0.883 -5.741,0.726 -6.761,-2.394 -1.02,-3.12 1.34,-5.043 4.041,-5.926 2.7,-0.883 6.421,1.354 12.162,0.628z"/>
  <path class="fil2" d="M232.413 521.838c-5.061,2.807 -6.742,6.81 -9.442,7.692 -2.701,0.883 -5.741,0.727 -6.761,-2.394 -1.02,-3.12 1.34,-5.043 4.041,-5.926 2.7,-0.883 6.421,1.355 12.162,0.628z"/>
  <path class="fil2" d="M196.322 511.301c-5.061,2.806 -6.741,6.809 -9.442,7.692 -2.7,0.882 -5.741,0.726 -6.761,-2.394 -1.02,-3.121 1.34,-5.044 4.041,-5.926 2.7,-0.884 6.421,1.354 12.162,0.628z"/>
  <path class="fil2" d="M216.869 490.49c-5.061,2.806 -6.741,6.809 -9.441,7.692 -2.701,0.883 -5.741,0.726 -6.762,-2.394 -1.02,-3.121 1.341,-5.043 4.041,-5.926 2.701,-0.884 6.421,1.354 12.162,0.628z"/>
  <path class="fil2" d="M250.853 483.113c-5.061,2.806 -6.741,6.81 -9.442,7.692 -2.7,0.883 -5.741,0.727 -6.761,-2.394 -1.02,-3.12 1.341,-5.043 4.041,-5.926 2.701,-0.883 6.421,1.354 12.162,0.628z"/>
  <path class="fil2" d="M278.215 469.529c-4.45,3.698 -5.357,7.944 -7.845,9.314 -2.489,1.37 -5.506,1.782 -7.089,-1.094 -1.583,-2.877 0.379,-5.205 2.868,-6.575 2.489,-1.37 6.561,0.136 12.066,-1.645z"/>
  <path class="fil2" d="M260.072 468.361c-5.061,2.806 -6.741,6.809 -9.441,7.692 -2.701,0.883 -5.741,0.726 -6.761,-2.394 -1.021,-3.121 1.34,-5.043 4.04,-5.926 2.701,-0.883 6.421,1.354 12.162,0.628z"/>
  <path class="fil2" d="M283.106 441.324c-5.061,2.806 -6.741,6.809 -9.441,7.692 -2.701,0.883 -5.741,0.726 -6.761,-2.394 -1.021,-3.121 1.34,-5.043 4.04,-5.926 2.701,-0.884 6.421,1.354 12.162,0.628z"/>
  <path class="fil2" d="M259.019 449.657c-5.061,2.806 -6.742,6.809 -9.442,7.692 -2.701,0.883 -5.741,0.726 -6.761,-2.394 -1.02,-3.121 1.34,-5.043 4.041,-5.926 2.7,-0.883 6.421,1.354 12.162,0.628z"/>
  <path class="fil2" d="M287.518 420.427c-5.061,2.806 -6.741,6.809 -9.441,7.692 -2.701,0.883 -5.741,0.726 -6.762,-2.394 -1.02,-3.12 1.341,-5.043 4.041,-5.926 2.701,-0.883 6.421,1.354 12.162,0.628z"/>
  <path class="fil2" d="M211.151 464.099c-5.061,2.806 -6.741,6.809 -9.441,7.692 -2.701,0.883 -5.741,0.726 -6.761,-2.394 -1.021,-3.121 1.34,-5.043 4.04,-5.926 2.701,-0.883 6.421,1.354 12.162,0.628z"/>
  <path class="fil2" d="M232.148 476c-5.06,2.806 -6.741,6.809 -9.441,7.692 -2.701,0.883 -5.741,0.727 -6.761,-2.394 -1.021,-3.12 1.34,-5.043 4.04,-5.926 2.701,-0.883 6.421,1.354 12.162,0.628z"/>
  <path class="fil2" d="M163.143 480.492c-5.061,2.806 -6.741,6.809 -9.442,7.692 -2.7,0.883 -5.741,0.726 -6.761,-2.394 -1.02,-3.12 1.34,-5.043 4.041,-5.926 2.7,-0.883 6.421,1.354 12.162,0.628z"/>
  <path class="fil2" d="M224.246 443.861c-5.061,2.806 -6.742,6.809 -9.442,7.692 -2.7,0.883 -5.741,0.726 -6.761,-2.394 -1.02,-3.12 1.34,-5.043 4.041,-5.926 2.7,-0.883 6.421,1.354 12.162,0.628z"/>
  <path class="fil2" d="M254.506 427.906c-4.45,3.699 -5.356,7.945 -7.845,9.315 -2.489,1.37 -5.506,1.781 -7.088,-1.095 -1.584,-2.876 0.378,-5.205 2.867,-6.574 2.489,-1.37 6.561,0.136 12.066,-1.646z"/>
  <path class="fil2" d="M235.673 455.059c-5.061,2.806 -6.741,6.81 -9.442,7.692 -2.7,0.883 -5.741,0.727 -6.761,-2.394 -1.02,-3.12 1.34,-5.043 4.041,-5.926 2.7,-0.883 6.421,1.354 12.162,0.628z"/>
  <path class="fil2" d="M301.203 402.006c-5.061,2.806 -6.741,6.809 -9.442,7.692 -2.7,0.882 -5.741,0.726 -6.761,-2.394 -1.02,-3.121 1.34,-5.044 4.041,-5.926 2.7,-0.884 6.421,1.354 12.162,0.628z"/>
  <path class="fil2" d="M232.814 423.994c-5.061,2.806 -6.741,6.809 -9.442,7.692 -2.7,0.883 -5.741,0.726 -6.761,-2.394 -1.02,-3.121 1.34,-5.043 4.041,-5.926 2.7,-0.884 6.421,1.354 12.162,0.628z"/>
  <path class="fil2" d="M315.253 416.352c-5.061,2.806 -6.741,6.809 -9.441,7.692 -2.701,0.883 -5.741,0.726 -6.762,-2.394 -1.02,-3.121 1.341,-5.043 4.041,-5.926 2.701,-0.884 6.421,1.354 12.162,0.628z"/>
  <path class="fil2" d="M192.443 487.518c-5.061,2.806 -6.742,6.809 -9.442,7.692 -2.7,0.883 -5.741,0.726 -6.761,-2.394 -1.02,-3.121 1.34,-5.043 4.041,-5.926 2.7,-0.884 6.421,1.354 12.162,0.628z"/>
  <path class="fil2" d="M187.363 449.307c-5.061,2.806 -6.742,6.809 -9.442,7.692 -2.701,0.883 -5.741,0.726 -6.761,-2.394 -1.02,-3.12 1.34,-5.043 4.041,-5.926 2.7,-0.883 6.421,1.354 12.162,0.628z"/>
  <path class="fil2" d="M149.201 466.347c-5.061,2.806 -6.742,6.809 -9.442,7.692 -2.701,0.883 -5.741,0.726 -6.761,-2.394 -1.02,-3.12 1.34,-5.043 4.041,-5.926 2.7,-0.883 6.421,1.354 12.162,0.628z"/>
  <path class="fil2" d="M183.342 469.075c-5.061,2.806 -6.742,6.81 -9.442,7.692 -2.701,0.883 -5.741,0.727 -6.761,-2.394 -1.02,-3.12 1.34,-5.043 4.041,-5.926 2.7,-0.883 6.421,1.355 12.162,0.628z"/>
  <path class="fil2" d="M166.943 446.135c-4.45,3.698 -5.356,7.944 -7.845,9.314 -2.489,1.37 -5.506,1.782 -7.089,-1.094 -1.583,-2.876 0.379,-5.205 2.868,-6.575 2.489,-1.37 6.561,0.136 12.066,-1.645z"/>
  <path class="fil2" d="M148.801 444.967c-5.061,2.806 -6.742,6.809 -9.442,7.692 -2.701,0.883 -5.741,0.726 -6.761,-2.394 -1.02,-3.12 1.34,-5.043 4.041,-5.926 2.7,-0.883 6.421,1.354 12.162,0.628z"/>
  <path class="fil2" d="M255.355 410.821c-5.061,2.806 -6.741,6.809 -9.442,7.692 -2.7,0.883 -5.741,0.726 -6.761,-2.394 -1.02,-3.121 1.34,-5.043 4.041,-5.926 2.7,-0.884 6.421,1.354 12.162,0.628z"/>
  <path class="fil2" d="M210.273 418.139c-5.061,2.806 -6.741,6.809 -9.442,7.692 -2.7,0.883 -5.741,0.727 -6.761,-2.394 -1.02,-3.12 1.341,-5.043 4.041,-5.926 2.701,-0.883 6.421,1.354 12.162,0.628z"/>
  <path class="fil2" d="M193.295 432.776c-5.061,2.806 -6.742,6.809 -9.442,7.692 -2.701,0.883 -5.741,0.726 -6.761,-2.394 -1.02,-3.121 1.34,-5.043 4.04,-5.926 2.701,-0.883 6.422,1.354 12.163,0.628z"/>
  <path class="fil2" d="M112.974 437.255c-5.061,2.806 -6.741,6.809 -9.442,7.692 -2.7,0.882 -5.741,0.726 -6.761,-2.395 -1.02,-3.12 1.34,-5.043 4.041,-5.925 2.7,-0.884 6.421,1.354 12.162,0.628z"/>
  <path class="fil2" d="M120.877 452.606c-5.061,2.806 -6.742,6.81 -9.442,7.692 -2.701,0.883 -5.741,0.727 -6.761,-2.394 -1.02,-3.12 1.34,-5.043 4.041,-5.926 2.7,-0.883 6.421,1.355 12.162,0.628z"/>
  <path class="fil2" d="M148.799 428.97c-5.061,2.806 -6.742,6.809 -9.442,7.692 -2.701,0.883 -5.741,0.727 -6.761,-2.394 -1.02,-3.12 1.34,-5.043 4.041,-5.926 2.7,-0.883 6.421,1.354 12.162,0.628z"/>
  <path class="fil2" d="M179.243 423.994c-5.06,2.806 -6.741,6.809 -9.441,7.692 -2.701,0.883 -5.741,0.726 -6.761,-2.394 -1.021,-3.121 1.34,-5.043 4.04,-5.926 2.701,-0.884 6.421,1.354 12.162,0.628z"/>
 </g>
</svg>
