<?xml version="1.0" encoding="UTF-8" standalone="no"?>
<!-- Created with Inkscape (http://www.inkscape.org/) -->

<svg
   xmlns:dc="http://purl.org/dc/elements/1.1/"
   xmlns:cc="http://creativecommons.org/ns#"
   xmlns:rdf="http://www.w3.org/1999/02/22-rdf-syntax-ns#"
   xmlns:svg="http://www.w3.org/2000/svg"
   xmlns="http://www.w3.org/2000/svg"
   xmlns:sodipodi="http://sodipodi.sourceforge.net/DTD/sodipodi-0.dtd"
   xmlns:inkscape="http://www.inkscape.org/namespaces/inkscape"
   width="7.1738586cm"
   height="7.3850718cm"
   viewBox="0 0 254.19184 261.67574"
   id="svg4315"
   version="1.1"
   inkscape:version="0.91 r13725"
   sodipodi:docname="cruise_control_t01.svg">
  <defs
     id="defs4317" />
  <sodipodi:namedview
     id="base"
     pagecolor="#ffffff"
     bordercolor="#666666"
     borderopacity="1.0"
     inkscape:pageopacity="0.0"
     inkscape:pageshadow="2"
     inkscape:zoom="1.8101934"
     inkscape:cx="-235.05429"
     inkscape:cy="195.10505"
     inkscape:document-units="px"
     inkscape:current-layer="layer1"
     showgrid="false"
     fit-margin-top="1"
     fit-margin-left="1"
     fit-margin-right="1"
     fit-margin-bottom="1"
     showborder="true"
     units="cm"
     inkscape:window-width="1920"
     inkscape:window-height="1027"
     inkscape:window-x="-8"
     inkscape:window-y="-8"
     inkscape:window-maximized="1" />
  <metadata
     id="metadata4320">
    <rdf:RDF>
      <cc:Work
         rdf:about="">
        <dc:format>image/svg+xml</dc:format>
        <dc:type
           rdf:resource="http://purl.org/dc/dcmitype/StillImage" />
        <dc:title />
      </cc:Work>
    </rdf:RDF>
  </metadata>
  <style
     id="style6">
    @font-face {
      font-family: Digital;
      src: url(/ui/common/Segment7Standard.otf);
    }
  </style>
  <g
     inkscape:label="Layer 1"
     inkscape:groupmode="layer"
     id="layer1"
     transform="translate(32.810208,-292.9529)">
    <g
       id="set_btn" style="cursor: pointer">
      <path
         style="fill:#434343;fill-opacity:1;fill-rule:evenodd;stroke:#000000;stroke-width:1.19999993;stroke-linecap:butt;stroke-linejoin:miter;stroke-miterlimit:4;stroke-dasharray:none;stroke-opacity:1"
         d="m -11.377125,388.38596 119.999995,0 0,-60 -88.392851,8.03572 c -16.6678522,1.52594 -21.6760738,5.88033 -24.8214335,21.60714 l -6.7857105,30.35714"
         id="set_btn_path"
         inkscape:connector-curvature="0"
         sodipodi:nodetypes="cccccc"
         inkscape:label="#path4185" />
      <text
         inkscape:label="#text4209"
         sodipodi:linespacing="125%"
         id="set_btn_txt"
         y="376.90988"
         x="17.39119"
         style="font-style:normal;font-variant:normal;font-weight:normal;font-stretch:normal;font-size:40px;line-height:125%;font-family:Roboto;-inkscape-font-specification:Roboto;letter-spacing:0px;word-spacing:0px;fill:#ffffff;fill-opacity:1;stroke:none;stroke-width:1px;stroke-linecap:butt;stroke-linejoin:miter;stroke-opacity:1"
         xml:space="preserve"><tspan
           style="font-size:35px"
           y="376.90988"
           x="17.39119"
           id="tspan4211"
           sodipodi:role="line">SET</tspan></text>
    </g>
    <g
       id="res_btn"
       inkscape:label="#g4154" style="cursor: pointer">
      <path
         sodipodi:nodetypes="ccccc"
         inkscape:connector-curvature="0"
         id="rect4187"
         d="m -11.377116,393.79077 119.999986,0 0,60.00001 -119.999986,0 c -1.593705,-20 -1.531036,-40.00001 0,-60.00001 z"
         style="fill:#434343;fill-opacity:1;fill-rule:nonzero;stroke:#000000;stroke-width:1.19999993;stroke-miterlimit:4;stroke-dasharray:none;stroke-opacity:1" />
      <text
         inkscape:label="#text4213"
         xml:space="preserve"
         style="font-style:normal;font-variant:normal;font-weight:normal;font-stretch:normal;font-size:40px;line-height:125%;font-family:Roboto;-inkscape-font-specification:Roboto;letter-spacing:0px;word-spacing:0px;fill:#ffffff;fill-opacity:1;stroke:none;stroke-width:11.91392803;stroke-linecap:butt;stroke-linejoin:miter;stroke-miterlimit:4;stroke-dasharray:none;stroke-opacity:1"
         x="16.750324"
         y="436.23215"
         id="res_btn_txt"
         sodipodi:linespacing="125%"><tspan
           sodipodi:role="line"
           id="tspan4215"
           x="16.750324"
           y="436.23215"
           style="font-size:35px;stroke:none;stroke-width:11.91392803;stroke-miterlimit:4;stroke-dasharray:none;stroke-opacity:1">RES</tspan></text>
    </g>
    <g
       id="cc_btn"
       inkscape:label="#g4159" style="cursor: pointer">
      <path
         sodipodi:nodetypes="cccccc"
         inkscape:connector-curvature="0"
         id="path4183"
         d="m -11.377136,459.19559 120.000006,0 0,60 -88.392853,-8.03571 C 3.5621668,509.63393 -1.4460447,505.27954 -4.5914148,489.55274 l -6.7857212,-30.35715"
         style="fill:#434343;fill-opacity:1;fill-rule:evenodd;stroke:#000000;stroke-width:1.19999993;stroke-linecap:butt;stroke-linejoin:miter;stroke-miterlimit:4;stroke-dasharray:none;stroke-opacity:1" />
      <g
         style="fill:#949494;fill-opacity:1;stroke:none;stroke-width:13.25566292;stroke-miterlimit:4;stroke-dasharray:none;stroke-opacity:1"
         transform="matrix(0.09052734,0,0,0.09052734,-180.52957,278.90881)"
         id="cc_icon"
         inkscape:label="#g4229">
        <path
           style="fill-opacity:1;stroke:none;stroke-width:13.25566292;stroke-miterlimit:4;stroke-dasharray:none;stroke-opacity:1;"
           d="m 2531.3064,2114.8021 c -122.9627,0 -222.6437,99.6811 -222.6437,222.6437 0,68.62 31.0594,129.9749 79.8683,170.8162 14.9153,-14.9455 29.827,-29.8948 44.7388,-44.8438 3.281,-3.281 0.6282,-11.2915 -5.9338,-17.8535 -6.562,-6.5622 -14.5199,-9.2148 -17.8009,-5.9338 l -21.3192,21.3192 c -24.3102,-28.1423 -40.4761,-63.5444 -44.7914,-102.5001 l 32.4514,0 c 4.6401,0 8.4017,-7.523 8.4017,-16.8033 0,-9.2802 -3.7616,-16.8033 -8.4017,-16.8033 l -33.1865,0 c 2.6468,-40.1836 17.8217,-76.9472 41.6932,-106.3859 l 25.1525,25.1525 c 3.281,3.281 11.2389,0.6284 17.8009,-5.9337 6.562,-6.5621 9.2148,-14.5724 5.9338,-17.8536 l -25.4676,-25.4674 c 29.1495,-25.1792 66.0892,-41.6263 106.7009,-45.2114 l 0,37.0722 c 0,4.6403 7.5232,8.4017 16.8033,8.4017 9.2803,0 16.8033,-3.7614 16.8033,-8.4017 l 0,-37.0722 c 40.6309,3.5799 77.5417,20.0145 106.701,45.2114 l -25.4674,25.4674 c -3.2812,3.2812 -0.6285,11.2915 5.9336,17.8536 6.5621,6.5621 14.5199,9.2147 17.801,5.9337 l 25.1524,-25.1525 c 23.8659,29.4407 39.0537,66.1976 41.6932,106.3859 l -33.1865,0 c -4.6401,0 -8.4017,7.5231 -8.4017,16.8033 0,9.2803 3.7616,16.8033 8.4017,16.8033 l 32.3989,0 c -4.307,38.9599 -20.441,74.3547 -44.7388,102.5001 l -21.3192,-21.3192 c -3.2811,-3.281 -11.2389,-0.6284 -17.801,5.9338 -6.5621,6.562 -9.2148,14.5725 -5.9336,17.8535 14.9092,14.9689 29.852,29.9046 44.7912,44.8438 48.7911,-40.8414 79.8157,-102.2105 79.8157,-170.8162 0,-122.9626 -99.6811,-222.6437 -222.6438,-222.6437 z"
           id="path4219"
           inkscape:connector-curvature="0"
           sodipodi:nodetypes="ssccssccsssccsssccsssccsssccsssccssccss" />
        <circle
           style="fill-opacity:1;stroke:none;stroke-width:13.25566292;stroke-miterlimit:4;stroke-dasharray:none;stroke-opacity:1;"
           id="circle4221"
           cx="2531.3062"
           cy="2341.625"
           r="29.405775" />
        <path
           style="fill-opacity:1;stroke:none;stroke-width:13.25566292;stroke-miterlimit:4;stroke-dasharray:none;stroke-opacity:1;"
           d="m 2477.9289,2209.158 c -7.7411,3.4723 -12.5771,9.2386 -11.0003,13.2929 l 39.9697,102.7729 c -5.1672,7.712 -6.6103,17.7718 -2.9902,27.08 5.8866,15.1361 22.9288,22.6341 38.0647,16.7475 15.1359,-5.8865 22.6341,-22.9287 16.7475,-38.0646 -3.6201,-9.3082 -11.4806,-15.7498 -20.5007,-17.9443 l -39.9698,-102.7727 c -1.6818,-4.3246 -10.0568,-5.1035 -18.7059,-1.7398 -0.5406,0.2102 -1.099,0.3966 -1.615,0.6281 z"
           id="path4223"
           inkscape:connector-curvature="0"
           inkscape:transform-center-y="-52.875881"
           inkscape:transform-center-x="17.627013" />
        <path
           style="fill-opacity:1;stroke:none;stroke-width:13.25566292;stroke-miterlimit:4;stroke-dasharray:none;stroke-opacity:1;"
           d="m 2407.0008,2029.8539 31.382,-12.0238 15.0297,39.2275 23.5366,-9.0179 -33.877,75.9604 -75.9601,-33.877 23.5365,-9.0178 -15.0299,-39.2277 z"
           id="path4225"
           inkscape:connector-curvature="0" />
      </g>
    </g>
    <path
       inkscape:label="#path4235"
       inkscape:connector-curvature="0"
       id="up_btn"
       d="m 165.42857,328.38595 -20.51998,45.43711 41.03997,0 z"
       style="fill:#434343;fill-opacity:1;fill-rule:evenodd;stroke:#000000;stroke-width:1.19999993;stroke-miterlimit:4;stroke-dasharray:none;stroke-opacity:1;cursor:pointer" />
    <path
       inkscape:label="#path4237"
       style="fill:#434343;fill-opacity:1;fill-rule:evenodd;stroke:#000000;stroke-opacity:1;stroke-width:1.19999993;stroke-miterlimit:4;stroke-dasharray:none;cursor:pointer"
       d="m 165.42857,519.19559 -20.51998,-45.43711 41.03997,0 z"
       id="down_btn"
       inkscape:connector-curvature="0" />
    <text
       sodipodi:linespacing="125%"
       inkscape:label="#text4149"
       id="target_speed_txt"
       y="450.76361"
       x="164"
       text-anchor="middle"
       style="font-variant:normal;font-weight:bold;font-stretch:normal;font-size:69.05749512px;line-height:125%;font-family:Digital;letter-spacing:0px;word-spacing:0px;fill:#949494;fill-opacity:1;stroke:none;stroke-width:1px;stroke-linecap:butt;stroke-linejoin:miter;stroke-opacity:1;">--</text>
  </g>
</svg>
